<svg width="800" height="200" viewBox="0 0 211.667 52.917" xmlns:xlink="http://www.w3.org/1999/xlink" xmlns="http://www.w3.org/2000/svg"><defs><linearGradient id="b"><stop style="stop-color:#ff8281;stop-opacity:1" offset="0"/><stop style="stop-color:#24218c;stop-opacity:1" offset="1"/></linearGradient><linearGradient id="a"><stop offset="0" stop-color="#ef4857"/><stop offset=".17" stop-color="#de4970"/><stop offset=".5" stop-color="#b44db0"/><stop offset="1" stop-color="#7f52ff"/></linearGradient><radialGradient xlink:href="#b" id="c" cx="12.999" cy="79.135" fx="12.999" fy="79.135" r="79.541" gradientTransform="matrix(2.76012 0 0 1.60006 -35.88 -85.08)" gradientUnits="userSpaceOnUse"/></defs><rect style="opacity:1;fill:url(#c);stroke-width:.305835" width="211.668" height="52.917" x="-.001" rx="1.687" ry="1.687"/><path style="font-weight:500;font-size:25.4002px;font-family:Roboto;white-space:pre;opacity:.7;fill:#fff;stroke-width:.264585" d="M10.766 45.194q1.129 0 1.873-.657t.794-1.625h2.84q-.05 1.253-.781 2.344-.732 1.08-1.985 1.712-1.253.632-2.704.632-2.815 0-4.464-1.823-1.65-1.823-1.65-5.035v-.31q0-3.064 1.637-4.9 1.637-1.847 4.465-1.847 2.394 0 3.894 1.401 1.513 1.39 1.588 3.66h-2.84q-.05-1.154-.794-1.898-.732-.745-1.873-.745-1.463 0-2.257 1.067-.794 1.054-.806 3.212v.484q0 2.183.781 3.262.794 1.066 2.282 1.066zm7.218-4.675q0-1.972.782-3.547.781-1.588 2.195-2.431 1.414-.856 3.25-.856 2.716 0 4.402 1.749 1.7 1.748 1.836 4.638l.012.707q0 1.985-.769 3.547-.756 1.563-2.183 2.419-1.413.855-3.274.855-2.84 0-4.551-1.885-1.7-1.897-1.7-5.047zm3.014.26q0 2.071.856 3.25.856 1.165 2.381 1.165 1.526 0 2.37-1.19.855-1.19.855-3.485 0-2.034-.88-3.225-.869-1.19-2.37-1.19-1.475 0-2.344 1.178-.868 1.165-.868 3.497zm15.218 6.573h-3.014v-19.05h3.014zm2.716-6.833q0-1.972.782-3.547.78-1.588 2.195-2.431 1.414-.856 3.25-.856 2.715 0 4.402 1.749 1.7 1.748 1.836 4.638l.012.707q0 1.985-.769 3.547-.756 1.563-2.183 2.419-1.414.855-3.274.855-2.84 0-4.552-1.885-1.699-1.897-1.699-5.047zm3.014.26q0 2.071.856 3.25.855 1.165 2.381 1.165 1.525 0 2.369-1.19.856-1.19.856-3.485 0-2.034-.881-3.225-.868-1.19-2.369-1.19-1.476 0-2.344 1.178-.868 1.165-.868 3.497zm19.038-4.093q-.596-.099-1.228-.099-2.071 0-2.79 1.588v9.177h-3.014V33.933h2.877l.074 1.5q1.092-1.748 3.026-1.748.645 0 1.067.174zm4.737-2.753.087 1.401q1.414-1.65 3.87-1.65 2.691 0 3.683 2.06 1.464-2.06 4.118-2.06 2.22 0 3.299 1.229 1.091 1.228 1.116 3.621v8.818H78.88v-8.73q0-1.278-.558-1.874-.558-.595-1.848-.595-1.03 0-1.686.558-.645.546-.906 1.439l.013 9.202H70.88v-8.83q-.062-2.369-2.419-2.369-1.81 0-2.567 1.476v9.723h-3.014V33.933Zm27.286 13.42q-.199-.385-.347-1.253-1.44 1.5-3.523 1.5-2.021 0-3.299-1.153-1.277-1.153-1.277-2.853 0-2.145 1.587-3.286 1.6-1.154 4.564-1.154h1.848v-.88q0-1.042-.583-1.662-.583-.633-1.773-.633-1.03 0-1.687.521-.657.509-.657 1.303h-3.014q0-1.104.732-2.06.731-.967 1.984-1.512 1.265-.546 2.815-.546 2.357 0 3.758 1.19 1.402 1.179 1.44 3.324v6.053q0 1.81.508 2.89v.21zm-3.312-2.171q.893 0 1.675-.434.793-.434 1.19-1.166v-2.53h-1.624q-1.675 0-2.518.583-.843.583-.843 1.65 0 .868.57 1.389.583.508 1.55.508zm12.812-14.51v3.261h2.369v2.232h-2.369v7.492q0 .768.298 1.116.31.335 1.091.335.521 0 1.054-.124v2.331q-1.03.285-1.984.285-3.473 0-3.473-3.832v-7.603h-2.207v-2.232h2.207v-3.262zm7.64 4.724q1.476-1.711 3.733-1.711 4.291 0 4.353 4.899v8.768h-3.013v-8.656q0-1.39-.608-1.96-.595-.583-1.761-.583-1.811 0-2.704 1.612v9.587h-3.014v-19.05h3.014z" aria-label="colormath"/></svg>