<svg xmlns="http://www.w3.org/2000/svg" xmlns:xlink="http://www.w3.org/1999/xlink" width="300" height="300" viewBox="0 0 264.583 264.583">
  <defs>
    <radialGradient xlink:href="#a" id="b" cx="132.292" cy="164.708" fx="132.292" fy="164.708" r="132.292" gradientUnits="userSpaceOnUse"/>
    <linearGradient id="a">
      <stop offset="0" stop-color="#fff"/>
      <stop offset="1" stop-color="#fff" stop-opacity="0"/>
    </linearGradient>
  </defs>
  <g transform="translate(0 -32.417)">
    <path d="M131.137 32.422a132.292 132.292 0 0 1 2.54.002l-1.385 132.284z" fill="red"/>
    <path d="M133.446 32.422a132.292 132.292 0 0 1 2.54.046l-3.694 132.24z" fill="#ff0400"/>
    <path d="M135.755 32.462a132.292 132.292 0 0 1 2.538.09l-6.001 132.156z" fill="#ff0900"/>
    <path d="M138.062 32.543a132.292 132.292 0 0 1 2.536.135l-8.306 132.03z" fill="#ff0d00"/>
    <path d="M140.368 32.663a132.292 132.292 0 0 1 2.533.18l-10.61 131.865Z" fill="#f10"/>
    <path d="M142.671 32.824a132.292 132.292 0 0 1 2.53.224l-12.91 131.66z" fill="#ff1500"/>
    <path d="M144.971 33.026a132.292 132.292 0 0 1 2.526.267l-15.205 131.415Z" fill="#ff1a00"/>
    <path d="M147.268 33.267a132.292 132.292 0 0 1 2.52.312l-17.496 131.13Z" fill="#ff1e00"/>
    <path d="M149.56 33.548a132.292 132.292 0 0 1 2.514.356l-19.782 130.804Z" fill="#f20"/>
    <path d="M151.846 33.87a132.292 132.292 0 0 1 2.508.4l-22.062 130.438Z" fill="#ff2600"/>
    <path d="M154.126 34.231a132.292 132.292 0 0 1 2.5.443l-24.334 130.034Z" fill="#ff2b00"/>
    <path d="M156.4 34.632a132.292 132.292 0 0 1 2.493.487l-26.601 129.59Z" fill="#ff2f00"/>
    <path d="M158.666 35.072a132.292 132.292 0 0 1 2.484.53l-28.858 129.106Z" fill="#f30"/>
    <path d="M160.925 35.552a132.292 132.292 0 0 1 2.474.574l-31.107 128.582Z" fill="#ff3700"/>
    <path d="M163.175 36.072a132.292 132.292 0 0 1 2.463.616l-33.346 128.02Z" fill="#ff3c00"/>
    <path d="M165.415 36.63a132.292 132.292 0 0 1 2.453.66l-35.576 127.418Z" fill="#ff4000"/>
    <path d="M167.645 37.228a132.292 132.292 0 0 1 2.44.702l-37.793 126.778Z" fill="none"/>
    <path d="M167.645 37.228a132.292 132.292 0 0 1 2.44.702l-37.793 126.778Z" fill="#f40"/>
    <path d="M169.865 37.864a132.292 132.292 0 0 1 2.428.745l-40.001 126.1z" fill="#ff4800"/>
    <path d="M172.073 38.54a132.292 132.292 0 0 1 2.414.786l-42.195 125.382z" fill="#ff4d00"/>
    <path d="M174.268 39.253a132.292 132.292 0 0 1 2.401.829l-44.377 124.626Z" fill="#ff5100"/>
    <path d="M176.452 40.005a132.292 132.292 0 0 1 2.385.87l-46.545 123.833Z" fill="#f50"/>
    <path d="M178.621 40.794a132.292 132.292 0 0 1 2.37.913l-48.7 123.001Z" fill="#ff5900"/>
    <path d="M180.777 41.622a132.292 132.292 0 0 1 2.354.953l-50.84 122.133Z" fill="#ff5e00"/>
    <path d="M182.918 42.487a132.292 132.292 0 0 1 2.337.994l-52.963 121.227Z" fill="#ff6200"/>
    <path d="M185.043 43.389a132.292 132.292 0 0 1 2.32 1.035l-55.071 120.284Z" fill="#f60"/>
    <path d="M187.152 44.328a132.292 132.292 0 0 1 2.301 1.075l-57.161 119.305Z" fill="#ff6a00"/>
    <path d="M189.245 45.304a132.292 132.292 0 0 1 2.281 1.115l-59.234 118.29z" fill="#ff6f00"/>
    <path d="M191.32 46.316a132.292 132.292 0 0 1 2.262 1.155l-61.29 117.237Z" fill="#ff7300"/>
    <path d="M193.377 47.364a132.292 132.292 0 0 1 2.242 1.194l-63.327 116.15z" fill="#f70"/>
    <path d="M195.416 48.448a132.292 132.292 0 0 1 2.22 1.233l-65.344 115.027Z" fill="#ff7b00"/>
    <path d="M197.435 49.568a132.292 132.292 0 0 1 2.199 1.271l-67.342 113.87Z" fill="#ff8000"/>
    <path d="M199.435 50.722a132.292 132.292 0 0 1 2.176 1.31l-69.32 112.676Z" fill="#ff8400"/>
    <path d="M201.414 51.911a132.292 132.292 0 0 1 2.153 1.348l-71.275 111.45Z" fill="#f80"/>
    <path d="M203.372 53.135a132.292 132.292 0 0 1 2.129 1.385l-73.21 110.188Z" fill="#ff8c00"/>
    <path d="M205.308 54.392a132.292 132.292 0 0 1 2.105 1.422l-75.121 108.894z" fill="#ff9100"/>
    <path d="M207.222 55.683a132.292 132.292 0 0 1 2.08 1.459l-77.01 107.566z" fill="#ff9500"/>
    <path d="M209.114 57.008a132.292 132.292 0 0 1 2.053 1.494l-78.875 106.206Z" fill="#f90"/>
    <path d="M210.982 58.365a132.292 132.292 0 0 1 2.027 1.53l-80.717 104.813Z" fill="#ff9d00"/>
    <path d="M212.826 59.754a132.292 132.292 0 0 1 2 1.566l-82.534 103.388Z" fill="#ffa200"/>
    <path d="M214.645 61.176a132.292 132.292 0 0 1 1.973 1.6l-84.326 101.932Z" fill="#ffa600"/>
    <path d="M216.44 62.629a132.292 132.292 0 0 1 1.944 1.634l-86.092 100.445Z" fill="#fa0"/>
    <path d="M218.208 64.113a132.292 132.292 0 0 1 1.916 1.668l-87.832 98.927z" fill="#ffae00"/>
    <path d="M219.95 65.628a132.292 132.292 0 0 1 1.887 1.7l-89.545 97.38z" fill="#ffb300"/>
    <path d="M221.667 67.173a132.292 132.292 0 0 1 1.856 1.733l-91.231 95.802z" fill="#ffb700"/>
    <path d="M223.355 68.747a132.292 132.292 0 0 1 1.826 1.766l-92.89 94.195z" fill="#fb0"/>
    <path d="M223.355 68.747a132.292 132.292 0 0 1 1.826 1.766l-92.89 94.195z" fill="#fb0"/>
    <path d="M225.016 70.351a132.292 132.292 0 0 1 1.794 1.798l-94.518 92.56z" fill="#ffbf00"/>
    <path d="M226.649 71.984a132.292 132.292 0 0 1 1.762 1.828l-96.12 90.896z" fill="#ffc400"/>
    <path d="M228.253 73.645a132.292 132.292 0 0 1 1.73 1.859l-97.691 89.204z" fill="#ffc800"/>
    <path d="M229.827 75.333a132.292 132.292 0 0 1 1.698 1.89l-99.233 87.485z" fill="#fc0"/>
    <path d="M231.372 77.05a132.292 132.292 0 0 1 1.665 1.917l-100.745 85.741Z" fill="#ffd000"/>
    <path d="M232.887 78.792a132.292 132.292 0 0 1 1.63 1.947l-102.225 83.97Z" fill="#ffd500"/>
    <path d="M234.371 80.56a132.292 132.292 0 0 1 1.597 1.976l-103.676 82.172Z" fill="#ffd900"/>
    <path d="M235.824 82.355a132.292 132.292 0 0 1 1.562 2.003l-105.094 80.35Z" fill="#fd0"/>
    <path d="M237.246 84.174a132.292 132.292 0 0 1 1.526 2.03l-106.48 78.504Z" fill="#ffe100"/>
    <path d="M238.635 86.018a132.292 132.292 0 0 1 1.491 2.056l-107.834 76.634Z" fill="#ffe600"/>
    <path d="M239.992 87.886a132.292 132.292 0 0 1 1.455 2.082l-109.155 74.74Z" fill="#ffea00"/>
    <path d="M241.317 89.777a132.292 132.292 0 0 1 1.418 2.107l-110.443 72.824Z" fill="#fe0"/>
    <path d="M242.608 91.692a132.292 132.292 0 0 1 1.381 2.13l-111.697 70.886Z" fill="#fff200"/>
    <path d="M243.865 93.628a132.292 132.292 0 0 1 1.344 2.155l-112.917 68.925Z" fill="#fff700"/>
    <path d="M245.089 95.586a132.292 132.292 0 0 1 1.306 2.178l-114.103 66.944Z" fill="#fffb00"/>
    <path d="M246.278 97.565a132.292 132.292 0 0 1 1.268 2.2l-115.254 64.943Z" fill="#ff0"/>
    <path d="M247.432 99.565a132.292 132.292 0 0 1 1.23 2.222l-116.37 62.921z" fill="#fbff00"/>
    <path d="M248.552 101.584a132.292 132.292 0 0 1 1.19 2.244l-117.45 60.88z" fill="#f7ff00"/>
    <path d="M249.636 103.623a132.292 132.292 0 0 1 1.15 2.264l-118.494 58.821z" fill="#f2ff00"/>
    <path d="M250.684 105.68a132.292 132.292 0 0 1 1.111 2.284l-119.503 56.744z" fill="#ef0"/>
    <path d="M251.696 107.755a132.292 132.292 0 0 1 1.072 2.303l-120.476 54.65z" fill="#eaff00"/>
    <path d="M252.672 109.848a132.292 132.292 0 0 1 1.031 2.321l-121.411 52.54z" fill="#e6ff00"/>
    <path d="M253.611 111.957a132.292 132.292 0 0 1 .99 2.339l-122.31 50.412z" fill="#e1ff00"/>
    <path d="M254.513 114.082a132.292 132.292 0 0 1 .95 2.356l-123.171 48.27z" fill="#df0"/>
    <path d="M255.378 116.223a132.292 132.292 0 0 1 .908 2.372l-123.994 46.113z" fill="#d9ff00"/>
    <path d="M256.206 118.379a132.292 132.292 0 0 1 .866 2.387l-124.78 43.942z" fill="#d5ff00"/>
    <path d="M256.995 120.548a132.292 132.292 0 0 1 .825 2.403l-125.528 41.757z" fill="#d0ff00"/>
    <path d="M257.747 122.732a132.292 132.292 0 0 1 .783 2.416l-126.238 39.56z" fill="#cf0"/>
    <path d="M258.46 124.927a132.292 132.292 0 0 1 .74 2.43l-126.908 37.351z" fill="#c8ff00"/>
    <path d="M259.136 127.135a132.292 132.292 0 0 1 .697 2.442l-127.541 35.131z" fill="#c4ff00"/>
    <path d="M259.772 129.355a132.292 132.292 0 0 1 .655 2.454l-128.135 32.9z" fill="#bfff00"/>
    <path d="M260.37 131.585a132.292 132.292 0 0 1 .612 2.465l-128.69 30.658z" fill="#bf0"/>
    <path d="M260.928 133.825a132.292 132.292 0 0 1 .57 2.476l-129.206 28.407z" fill="#b7ff00"/>
    <path d="M261.447 136.075a132.292 132.292 0 0 1 .526 2.485l-129.681 26.148z" fill="#b3ff00"/>
    <path d="M261.928 138.334a132.292 132.292 0 0 1 .482 2.493l-130.118 23.881z" fill="#aeff00"/>
    <path d="M262.368 140.6a132.292 132.292 0 0 1 .439 2.502l-130.515 21.606z" fill="#af0"/>
    <path d="M262.769 142.874a132.292 132.292 0 0 1 .395 2.509l-130.872 19.325z" fill="#a6ff00"/>
    <path d="M263.13 145.154a132.292 132.292 0 0 1 .352 2.516l-131.19 17.038z" fill="#a2ff00"/>
    <path d="M263.452 147.44a132.292 132.292 0 0 1 .307 2.522l-131.467 14.746z" fill="#9eff00"/>
    <path d="M263.733 149.732a132.292 132.292 0 0 1 .263 2.527l-131.704 12.45z" fill="#9f0"/>
    <path d="M263.974 152.029a132.292 132.292 0 0 1 .22 2.53l-131.902 10.15z" fill="#95ff00"/>
    <path d="M264.176 154.329a132.292 132.292 0 0 1 .174 2.534l-132.058 7.845z" fill="#91ff00"/>
    <path d="M264.337 156.632a132.292 132.292 0 0 1 .13 2.537l-132.175 5.54z" fill="#8cff00"/>
    <path d="M264.457 158.938a132.292 132.292 0 0 1 .087 2.538l-132.252 3.232z" fill="#8f0"/>
    <path d="M264.538 161.245a132.292 132.292 0 0 1 .042 2.54l-132.288.923z" fill="#84ff00"/>
    <path d="M264.578 163.554a132.292 132.292 0 0 1-.002 2.54l-132.284-1.386z" fill="#80ff00"/>
    <path d="M264.578 165.863a132.292 132.292 0 0 1-.046 2.54l-132.24-3.695z" fill="#7bff00"/>
    <path d="M264.538 168.171a132.292 132.292 0 0 1-.09 2.538l-132.156-6z" fill="#7f0"/>
    <path d="M264.457 170.479a132.292 132.292 0 0 1-.135 2.536l-132.03-8.307z" fill="#73ff00"/>
    <path d="M264.337 172.785a132.292 132.292 0 0 1-.18 2.533l-131.865-10.61Z" fill="#6fff00"/>
    <path d="M264.176 175.088a132.292 132.292 0 0 1-.224 2.53l-131.66-12.91z" fill="#6aff00"/>
    <path d="M263.974 177.388a132.292 132.292 0 0 1-.267 2.526l-131.415-15.206Z" fill="#6f0"/>
    <path d="M263.733 179.684a132.292 132.292 0 0 1-.312 2.52l-131.13-17.496Z" fill="#62ff00"/>
    <path d="M263.452 181.976a132.292 132.292 0 0 1-.356 2.515l-130.804-19.783Z" fill="#5eff00"/>
    <path d="M263.13 184.262a132.292 132.292 0 0 1-.4 2.508l-130.438-22.062Z" fill="#59ff00"/>
    <path d="M262.769 186.543a132.292 132.292 0 0 1-.443 2.5l-130.034-24.335Z" fill="#5f0"/>
    <path d="M262.368 188.817a132.292 132.292 0 0 1-.487 2.492l-129.59-26.6Z" fill="#51ff00"/>
    <path d="M261.928 191.083a132.292 132.292 0 0 1-.53 2.484l-129.106-28.859Z" fill="#4dff00"/>
    <path d="M261.447 193.341a132.292 132.292 0 0 1-.573 2.475l-128.582-31.108Z" fill="#48ff00"/>
    <path d="M260.928 195.591a132.292 132.292 0 0 1-.616 2.464l-128.02-33.347Z" fill="#4f0"/>
    <path d="M260.37 197.832a132.292 132.292 0 0 1-.66 2.452l-127.418-35.576Z" fill="#40ff00"/>
    <path d="M259.772 200.062a132.292 132.292 0 0 1-.702 2.44l-126.778-37.794z" fill="#3cff00"/>
    <path d="M259.136 202.281a132.292 132.292 0 0 1-.745 2.428l-126.1-40Z" fill="#37ff00"/>
    <path d="M258.46 204.49a132.292 132.292 0 0 1-.786 2.414l-125.382-42.196Z" fill="#3f0"/>
    <path d="M257.747 206.685a132.292 132.292 0 0 1-.829 2.4l-124.626-44.377Z" fill="#2fff00"/>
    <path d="M256.995 208.868a132.292 132.292 0 0 1-.87 2.386l-123.833-46.546Z" fill="#2bff00"/>
    <path d="M256.206 211.038a132.292 132.292 0 0 1-.913 2.37l-123.001-48.7Z" fill="#26ff00"/>
    <path d="M255.378 213.193a132.292 132.292 0 0 1-.953 2.354l-122.133-50.839Z" fill="#2f0"/>
    <path d="M254.513 215.334a132.292 132.292 0 0 1-.994 2.337l-121.227-52.963Z" fill="#1eff00"/>
    <path d="M253.611 217.46a132.292 132.292 0 0 1-1.035 2.319l-120.284-55.07Z" fill="#1aff00"/>
    <path d="M252.672 219.569a132.292 132.292 0 0 1-1.075 2.3l-119.305-57.16Z" fill="#15ff00"/>
    <path d="M251.696 221.661a132.292 132.292 0 0 1-1.115 2.282l-118.29-59.235z" fill="#1f0"/>
    <path d="M250.684 223.737a132.292 132.292 0 0 1-1.155 2.262l-117.237-61.29z" fill="#0dff00"/>
    <path d="M249.636 225.794a132.292 132.292 0 0 1-1.194 2.241l-116.15-63.327Z" fill="#09ff00"/>
    <path d="M248.552 227.832a132.292 132.292 0 0 1-1.233 2.22l-115.027-65.344Z" fill="#04ff00"/>
    <path d="M247.432 229.852a132.292 132.292 0 0 1-1.271 2.198l-113.87-67.342z" fill="#0f0"/>
    <path d="M246.278 231.851a132.292 132.292 0 0 1-1.31 2.176l-112.676-69.319Z" fill="#00ff04"/>
    <path d="M245.089 233.83a132.292 132.292 0 0 1-1.348 2.153l-111.45-71.275Z" fill="#00ff09"/>
    <path d="M243.865 235.789a132.292 132.292 0 0 1-1.385 2.128l-110.188-73.209Z" fill="#00ff0d"/>
    <path d="M242.608 237.725a132.292 132.292 0 0 1-1.422 2.104l-108.894-75.12z" fill="#0f1"/>
    <path d="M241.317 239.64a132.292 132.292 0 0 1-1.459 2.078l-107.566-77.01Z" fill="#00ff15"/>
    <path d="M239.992 241.53a132.292 132.292 0 0 1-1.494 2.054l-106.206-78.876Z" fill="#00ff1a"/>
    <path d="M238.635 243.398a132.292 132.292 0 0 1-1.53 2.027l-104.813-80.717Z" fill="#00ff1e"/>
    <path d="M237.246 245.242a132.292 132.292 0 0 1-1.566 2l-103.388-82.534Z" fill="#0f2"/>
    <path d="M235.824 247.062a132.292 132.292 0 0 1-1.6 1.972l-101.932-84.326Z" fill="#00ff26"/>
    <path d="M234.371 248.856a132.292 132.292 0 0 1-1.634 1.944l-100.445-86.092Z" fill="#00ff2b"/>
    <path d="M232.887 250.625a132.292 132.292 0 0 1-1.668 1.915l-98.927-87.832z" fill="#00ff2f"/>
    <path d="M231.372 252.367a132.292 132.292 0 0 1-1.7 1.886l-97.38-89.545z" fill="#0f3"/>
    <path d="M229.827 254.083a132.292 132.292 0 0 1-1.733 1.856l-95.802-91.23z" fill="#00ff37"/>
    <path d="M228.253 255.772a132.292 132.292 0 0 1-1.766 1.825l-94.195-92.889z" fill="#00ff3c"/>
    <path d="M226.649 257.433a132.292 132.292 0 0 1-1.798 1.794l-92.56-94.519z" fill="#00ff40"/>
    <path d="M225.016 259.065a132.292 132.292 0 0 1-1.828 1.763l-90.896-96.12z" fill="#0f4"/>
    <path d="M223.355 260.67a132.292 132.292 0 0 1-1.859 1.73l-89.204-97.692z" fill="#00ff48"/>
    <path d="M221.667 262.244a132.292 132.292 0 0 1-1.89 1.698l-87.485-99.234z" fill="#00ff4d"/>
    <path d="M219.95 263.789a132.292 132.292 0 0 1-1.917 1.665l-85.741-100.746Z" fill="#00ff51"/>
    <path d="M218.208 265.304a132.292 132.292 0 0 1-1.947 1.63l-83.97-102.226Z" fill="#0f5"/>
    <path d="M216.44 266.788a132.292 132.292 0 0 1-1.976 1.596l-82.172-103.676Z" fill="#00ff59"/>
    <path d="M214.645 268.24a132.292 132.292 0 0 1-2.003 1.563l-80.35-105.095Z" fill="#00ff5e"/>
    <path d="M212.826 269.662a132.292 132.292 0 0 1-2.03 1.527l-78.504-106.48Z" fill="#00ff62"/>
    <path d="M210.982 271.052a132.292 132.292 0 0 1-2.056 1.49l-76.634-107.834Z" fill="#0f6"/>
    <path d="M209.114 272.409a132.292 132.292 0 0 1-2.082 1.455l-74.74-109.156Z" fill="#00ff6a"/>
    <path d="M207.222 273.733a132.292 132.292 0 0 1-2.106 1.419l-72.824-110.444Z" fill="#00ff6f"/>
    <path d="M205.308 275.024a132.292 132.292 0 0 1-2.13 1.382l-70.886-111.698Z" fill="#00ff73"/>
    <path d="M203.372 276.282a132.292 132.292 0 0 1-2.155 1.344l-68.925-112.918Z" fill="#0f7"/>
    <path d="M201.414 277.506a132.292 132.292 0 0 1-2.178 1.306l-66.944-114.104Z" fill="#00ff7b"/>
    <path d="M199.435 278.695a132.292 132.292 0 0 1-2.2 1.268l-64.943-115.255Z" fill="#00ff80"/>
    <path d="M197.435 279.85a132.292 132.292 0 0 1-2.222 1.229l-62.921-116.37Z" fill="#00ff84"/>
    <path d="M195.416 280.969a132.292 132.292 0 0 1-2.244 1.19l-60.88-117.45z" fill="#0f8"/>
    <path d="M193.377 282.052a132.292 132.292 0 0 1-2.264 1.152l-58.821-118.496z" fill="#00ff8c"/>
    <path d="M191.32 283.1a132.292 132.292 0 0 1-2.284 1.112l-56.744-119.504Z" fill="#00ff91"/>
    <path d="M189.245 284.113a132.292 132.292 0 0 1-2.303 1.071l-54.65-120.476Z" fill="#00ff95"/>
    <path d="M187.152 285.089a132.292 132.292 0 0 1-2.321 1.03l-52.54-121.41Z" fill="#0f9"/>
    <path d="M185.043 286.028a132.292 132.292 0 0 1-2.339.99l-50.412-122.31Z" fill="#00ff9d"/>
    <path d="M182.918 286.93a132.292 132.292 0 0 1-2.356.95l-48.27-123.172Z" fill="#00ffa2"/>
    <path d="M180.777 287.795a132.292 132.292 0 0 1-2.372.908l-46.113-123.995z" fill="#00ffa6"/>
    <path d="M178.621 288.622a132.292 132.292 0 0 1-2.387.867l-43.942-124.78z" fill="#0fa"/>
    <path d="M176.452 289.412a132.292 132.292 0 0 1-2.403.825l-41.757-125.529Z" fill="#00ffae"/>
    <path d="M174.268 290.164a132.292 132.292 0 0 1-2.416.782l-39.56-126.238Z" fill="#00ffb3"/>
    <path d="M172.073 290.877a132.292 132.292 0 0 1-2.43.74l-37.351-126.909Z" fill="#00ffb7"/>
    <path d="M169.865 291.552a132.292 132.292 0 0 1-2.442.698l-35.131-127.542Z" fill="#0fb"/>
    <path d="M167.645 292.189a132.292 132.292 0 0 1-2.454.655l-32.9-128.136z" fill="#00ffbf"/>
    <path d="M165.415 292.786a132.292 132.292 0 0 1-2.465.612l-30.658-128.69Z" fill="#00ffc4"/>
    <path d="M163.175 293.345a132.292 132.292 0 0 1-2.476.569l-28.407-129.206z" fill="#00ffc8"/>
    <path d="M160.925 293.864a132.292 132.292 0 0 1-2.485.526l-26.148-129.682Z" fill="#0fc"/>
    <path d="M158.666 294.344a132.292 132.292 0 0 1-2.493.483l-23.881-130.119Z" fill="#00ffd0"/>
    <path d="M156.4 294.785a132.292 132.292 0 0 1-2.502.439l-21.606-130.516Z" fill="#00ffd5"/>
    <path d="M154.126 295.186a132.292 132.292 0 0 1-2.509.395l-19.325-130.873Z" fill="#00ffd9"/>
    <path d="M151.846 295.547a132.292 132.292 0 0 1-2.516.351l-17.038-131.19Z" fill="#0fd"/>
    <path d="M149.56 295.868a132.292 132.292 0 0 1-2.522.308l-14.746-131.468Z" fill="#00ffe1"/>
    <path d="M147.268 296.15a132.292 132.292 0 0 1-2.527.263l-12.45-131.705Z" fill="#00ffe6"/>
    <path d="M144.971 296.391a132.292 132.292 0 0 1-2.53.22l-10.15-131.903z" fill="#00ffea"/>
    <path d="M142.671 296.592a132.292 132.292 0 0 1-2.534.175l-7.845-132.059z" fill="#0fe"/>
    <path d="M140.368 296.753a132.292 132.292 0 0 1-2.537.131l-5.54-132.176z" fill="#00fff2"/>
    <path d="M138.062 296.874a132.292 132.292 0 0 1-2.538.086l-3.232-132.252z" fill="#00fff7"/>
    <path d="M135.755 296.955a132.292 132.292 0 0 1-2.54.042l-.923-132.289z" fill="#00fffb"/>
    <path d="M133.446 296.995a132.292 132.292 0 0 1-2.54-.002l1.386-132.284z" fill="#0ff"/>
    <path d="M131.137 296.995a132.292 132.292 0 0 1-2.54-.047l3.695-132.24z" fill="#00fbff"/>
    <path d="M128.829 296.955a132.292 132.292 0 0 1-2.538-.091l6-132.156z" fill="#00f7ff"/>
    <path d="M126.521 296.874a132.292 132.292 0 0 1-2.536-.135l8.307-132.03z" fill="#00f2ff"/>
    <path d="M124.215 296.753a132.292 132.292 0 0 1-2.533-.18l10.61-131.865z" fill="#0ef"/>
    <path d="M121.912 296.592a132.292 132.292 0 0 1-2.53-.223l12.91-131.66z" fill="#00eaff"/>
    <path d="M119.612 296.391a132.292 132.292 0 0 1-2.526-.268l15.206-131.415z" fill="#00e6ff"/>
    <path d="M117.316 296.15a132.292 132.292 0 0 1-2.52-.312l17.496-131.13z" fill="#00e1ff"/>
    <path d="M115.024 295.868a132.292 132.292 0 0 1-2.515-.355l19.783-130.805z" fill="#0df"/>
    <path d="M112.738 295.547a132.292 132.292 0 0 1-2.508-.4l22.062-130.439z" fill="#00d9ff"/>
    <path d="M110.457 295.186a132.292 132.292 0 0 1-2.5-.444l24.335-130.034z" fill="#00d5ff"/>
    <path d="M108.183 294.785a132.292 132.292 0 0 1-2.492-.487l26.6-129.59z" fill="#00d0ff"/>
    <path d="M105.917 294.344a132.292 132.292 0 0 1-2.484-.53l28.859-129.106z" fill="#0cf"/>
    <path d="M103.659 293.864a132.292 132.292 0 0 1-2.475-.573l31.108-128.583z" fill="#00c8ff"/>
    <path d="M101.409 293.345a132.292 132.292 0 0 1-2.464-.617l33.347-128.02Z" fill="#00c4ff"/>
    <path d="M99.168 292.786a132.292 132.292 0 0 1-2.452-.66l35.576-127.418Z" fill="#00bfff"/>
    <path d="M96.938 292.189a132.292 132.292 0 0 1-2.44-.703l37.794-126.778Z" fill="#0bf"/>
    <path d="M94.719 291.552a132.292 132.292 0 0 1-2.428-.744l40-126.1Z" fill="#00b7ff"/>
    <path d="M92.51 290.877a132.292 132.292 0 0 1-2.414-.787l42.196-125.382Z" fill="#00b3ff"/>
    <path d="M90.315 290.164a132.292 132.292 0 0 1-2.4-.83l44.377-124.626Z" fill="#00aeff"/>
    <path d="M88.132 289.412a132.292 132.292 0 0 1-2.386-.87l46.546-123.834Z" fill="#0af"/>
    <path d="M85.962 288.622a132.292 132.292 0 0 1-2.37-.912l48.7-123.002Z" fill="#00a6ff"/>
    <path d="M83.807 287.795a132.292 132.292 0 0 1-2.354-.954l50.839-122.133Z" fill="#00a2ff"/>
    <path d="M81.666 286.93a132.292 132.292 0 0 1-2.337-.995l52.963-121.227Z" fill="#009dff"/>
    <path d="M79.54 286.028a132.292 132.292 0 0 1-2.319-1.035l55.07-120.285Z" fill="#09f"/>
    <path d="M77.431 285.089a132.292 132.292 0 0 1-2.3-1.076l57.16-119.305Z" fill="#0095ff"/>
    <path d="M75.339 284.113a132.292 132.292 0 0 1-2.282-1.116l59.235-118.289Z" fill="#0091ff"/>
    <path d="M73.263 283.1a132.292 132.292 0 0 1-2.262-1.154l61.29-117.238Z" fill="#008cff"/>
    <path d="M71.206 282.052a132.292 132.292 0 0 1-2.241-1.194l63.327-116.15Z" fill="#08f"/>
    <path d="M69.168 280.969a132.292 132.292 0 0 1-2.22-1.234l65.344-115.027Z" fill="#0084ff"/>
    <path d="M67.148 279.85a132.292 132.292 0 0 1-2.198-1.273l67.342-113.869z" fill="#0080ff"/>
    <path d="M65.149 278.695a132.292 132.292 0 0 1-2.176-1.31l69.319-112.677Z" fill="#007bff"/>
    <path d="M63.17 277.506a132.292 132.292 0 0 1-2.153-1.348l71.275-111.45Z" fill="#07f"/>
    <path d="M61.211 276.282a132.292 132.292 0 0 1-2.128-1.385l73.209-110.189Z" fill="#0072ff"/>
    <path d="M59.275 275.024a132.292 132.292 0 0 1-2.104-1.422l75.12-108.894Z" fill="#006fff"/>
    <path d="M57.36 273.733a132.292 132.292 0 0 1-2.078-1.458l77.01-107.567Z" fill="#006aff"/>
    <path d="M55.47 272.409a132.292 132.292 0 0 1-2.054-1.495l78.876-106.206z" fill="#06f"/>
    <path d="M53.602 271.052a132.292 132.292 0 0 1-2.027-1.53l80.717-104.814Z" fill="#0062ff"/>
    <path d="M51.758 269.662a132.292 132.292 0 0 1-2-1.565l82.534-103.389Z" fill="#005eff"/>
    <path d="M49.938 268.24a132.292 132.292 0 0 1-1.972-1.6l84.326-101.932Z" fill="#0059ff"/>
    <path d="M48.144 266.788a132.292 132.292 0 0 1-1.944-1.634l86.092-100.446Z" fill="#05f"/>
    <path d="M46.375 265.304a132.292 132.292 0 0 1-1.915-1.668l87.832-98.928z" fill="#0051ff"/>
    <path d="M44.633 263.789a132.292 132.292 0 0 1-1.886-1.701l89.545-97.38z" fill="#004dff"/>
    <path d="M42.917 262.244a132.292 132.292 0 0 1-1.856-1.734l91.23-95.802z" fill="#0048ff"/>
    <path d="M41.228 260.67a132.292 132.292 0 0 1-1.825-1.767l92.889-94.195z" fill="#04f"/>
    <path d="M39.567 259.065a132.292 132.292 0 0 1-1.794-1.797l94.519-92.56z" fill="#0040ff"/>
    <path d="M37.935 257.433a132.292 132.292 0 0 1-1.763-1.829l96.12-90.896z" fill="#003cff"/>
    <path d="M36.33 255.772a132.292 132.292 0 0 1-1.73-1.86l97.692-89.204z" fill="#0037ff"/>
    <path d="M34.756 254.083a132.292 132.292 0 0 1-1.698-1.889l99.234-87.486z" fill="#03f"/>
    <path d="M33.211 252.367a132.292 132.292 0 0 1-1.665-1.918l100.746-85.74Z" fill="#002fff"/>
    <path d="M31.696 250.625a132.292 132.292 0 0 1-1.63-1.947l102.226-83.97Z" fill="#002bff"/>
    <path d="M30.212 248.856a132.292 132.292 0 0 1-1.596-1.975l103.676-82.173Z" fill="#0026ff"/>
    <path d="M28.76 247.062a132.292 132.292 0 0 1-1.563-2.003l105.095-80.35Z" fill="#02f"/>
    <path d="M27.338 245.242a132.292 132.292 0 0 1-1.527-2.03l106.48-78.504Z" fill="#001eff"/>
    <path d="M25.948 243.398a132.292 132.292 0 0 1-1.49-2.056l107.834-76.634Z" fill="#001aff"/>
    <path d="M24.591 241.53a132.292 132.292 0 0 1-1.455-2.081l109.156-74.74Z" fill="#0015ff"/>
    <path d="M23.267 239.64a132.292 132.292 0 0 1-1.419-2.108l110.444-72.824Z" fill="#01f"/>
    <path d="M21.976 237.725a132.292 132.292 0 0 1-1.382-2.131l111.698-70.886Z" fill="#000dff"/>
    <path d="M20.718 235.789a132.292 132.292 0 0 1-1.344-2.155l112.918-68.926Z" fill="#0009ff"/>
    <path d="M19.494 233.83a132.292 132.292 0 0 1-1.306-2.178l114.104-66.944Z" fill="#0004ff"/>
    <path d="M18.305 231.851a132.292 132.292 0 0 1-1.268-2.2l115.255-64.943Z" fill="#00f"/>
    <path d="M17.15 229.852a132.292 132.292 0 0 1-1.229-2.223l116.37-62.92Z" fill="#0400ff"/>
    <path d="M16.031 227.832a132.292 132.292 0 0 1-1.19-2.243l117.45-60.88z" fill="#0900ff"/>
    <path d="M14.948 225.794a132.292 132.292 0 0 1-1.152-2.264l118.496-58.822Z" fill="#0d00ff"/>
    <path d="M13.9 223.737a132.292 132.292 0 0 1-1.112-2.284l119.504-56.745Z" fill="#10f"/>
    <path d="M12.887 221.661a132.292 132.292 0 0 1-1.071-2.302l120.476-54.65Z" fill="#1500ff"/>
    <path d="M11.911 219.569a132.292 132.292 0 0 1-1.03-2.321l121.41-52.54Z" fill="#1a00ff"/>
    <path d="M10.972 217.46a132.292 132.292 0 0 1-.99-2.34l122.31-50.412Z" fill="#1e00ff"/>
    <path d="M10.07 215.334a132.292 132.292 0 0 1-.95-2.356l123.172-48.27Z" fill="#20f"/>
    <path d="M9.205 213.193a132.292 132.292 0 0 1-.908-2.371l123.995-46.114Z" fill="#2600ff"/>
    <path d="M8.378 211.038a132.292 132.292 0 0 1-.867-2.388l124.78-43.942Z" fill="#2b00ff"/>
    <path d="M7.588 208.868a132.292 132.292 0 0 1-.825-2.402l125.529-41.758Z" fill="#2f00ff"/>
    <path d="M6.836 206.685a132.292 132.292 0 0 1-.782-2.416l126.238-39.56z" fill="#30f"/>
    <path d="M6.123 204.49a132.292 132.292 0 0 1-.74-2.43l126.909-37.352Z" fill="#3700ff"/>
    <path d="M5.448 202.281a132.292 132.292 0 0 1-.698-2.442l127.542-35.13Z" fill="#3c00ff"/>
    <path d="M4.811 200.062a132.292 132.292 0 0 1-.655-2.454l128.136-32.9Z" fill="#4000ff"/>
    <path d="M4.214 197.832a132.292 132.292 0 0 1-.612-2.465l128.69-30.659Z" fill="#40f"/>
    <path d="M3.655 195.591a132.292 132.292 0 0 1-.569-2.475l129.206-28.408z" fill="#4800ff"/>
    <path d="M3.136 193.341a132.292 132.292 0 0 1-.526-2.484l129.682-26.149Z" fill="#4d00ff"/>
    <path d="M2.656 191.083a132.292 132.292 0 0 1-.483-2.493l130.119-23.882Z" fill="#5100ff"/>
    <path d="M2.215 188.817a132.292 132.292 0 0 1-.439-2.502l130.516-21.607Z" fill="#50f"/>
    <path d="M1.814 186.543a132.292 132.292 0 0 1-.395-2.51l130.873-19.325Z" fill="#5900ff"/>
    <path d="M1.453 184.262a132.292 132.292 0 0 1-.351-2.515l131.19-17.039Z" fill="#5e00ff"/>
    <path d="M1.132 181.976a132.292 132.292 0 0 1-.308-2.521l131.468-14.747Z" fill="#6200ff"/>
    <path d="M.85 179.684a132.292 132.292 0 0 1-.263-2.526l131.705-12.45Z" fill="#60f"/>
    <path d="M.609 177.388a132.292 132.292 0 0 1-.22-2.53l131.903-10.15Z" fill="#6a00ff"/>
    <path d="M.408 175.088a132.292 132.292 0 0 1-.175-2.534l132.059-7.846Z" fill="#6f00ff"/>
    <path d="M.247 172.785a132.292 132.292 0 0 1-.131-2.537l132.176-5.54z" fill="#7300ff"/>
    <path d="M.126 170.479a132.292 132.292 0 0 1-.087-2.538l132.253-3.233Z" fill="#70f"/>
    <path d="M.045 168.171a132.292 132.292 0 0 1-.042-2.54l132.289-.923Z" fill="#7b00ff"/>
    <path d="M.005 165.863a132.292 132.292 0 0 1 .002-2.54l132.285 1.385z" fill="#8000ff"/>
    <path d="M.005 163.554a132.292 132.292 0 0 1 .047-2.54l132.24 3.694z" fill="#8400ff"/>
    <path d="M.045 161.245a132.292 132.292 0 0 1 .091-2.538l132.156 6.001Z" fill="#80f"/>
    <path d="M.126 158.938a132.292 132.292 0 0 1 .135-2.536l132.03 8.306Z" fill="#8c00ff"/>
    <path d="M.247 156.632a132.292 132.292 0 0 1 .18-2.533l131.865 10.61Z" fill="#9100ff"/>
    <path d="M.408 154.329a132.292 132.292 0 0 1 .223-2.53l131.66 12.91Z" fill="#9500ff"/>
    <path d="M.609 152.029a132.292 132.292 0 0 1 .268-2.526l131.415 15.205Z" fill="#90f"/>
    <path d="M.85 149.732a132.292 132.292 0 0 1 .312-2.52l131.13 17.496Z" fill="#9d00ff"/>
    <path d="M1.132 147.44a132.292 132.292 0 0 1 .355-2.514l130.805 19.782Z" fill="#a200ff"/>
    <path d="M1.453 145.154a132.292 132.292 0 0 1 .4-2.508l130.439 22.062Z" fill="#a600ff"/>
    <path d="M1.814 142.874a132.292 132.292 0 0 1 .444-2.5l130.034 24.334Z" fill="#a0f"/>
    <path d="M2.215 140.6a132.292 132.292 0 0 1 .487-2.493l129.59 26.601Z" fill="#ae00ff"/>
    <path d="M2.656 138.334a132.292 132.292 0 0 1 .53-2.484l129.106 28.858Z" fill="#b300ff"/>
    <path d="M3.136 136.075a132.292 132.292 0 0 1 .573-2.474l128.583 31.107Z" fill="#b700ff"/>
    <path d="M3.655 133.825a132.292 132.292 0 0 1 .617-2.463l128.02 33.346z" fill="#b0f"/>
    <path d="M4.214 131.585a132.292 132.292 0 0 1 .66-2.453l127.418 35.576Z" fill="#bf00ff"/>
    <path d="M4.811 129.355a132.292 132.292 0 0 1 .703-2.44l126.778 37.793Z" fill="#c400ff"/>
    <path d="M5.448 127.135a132.292 132.292 0 0 1 .744-2.428l126.1 40.001Z" fill="#c800ff"/>
    <path d="M6.123 124.927a132.292 132.292 0 0 1 .787-2.414l125.382 42.195Z" fill="#c0f"/>
    <path d="M6.836 122.732a132.292 132.292 0 0 1 .83-2.401l124.626 44.377Z" fill="#d000ff"/>
    <path d="M7.588 120.548a132.292 132.292 0 0 1 .87-2.385l123.834 46.545Z" fill="#d500ff"/>
    <path d="M8.378 118.379a132.292 132.292 0 0 1 .912-2.37l123.002 48.7Z" fill="#d900ff"/>
    <path d="M9.205 116.223a132.292 132.292 0 0 1 .954-2.354l122.133 50.84z" fill="#d0f"/>
    <path d="M10.07 114.082a132.292 132.292 0 0 1 .995-2.337l121.227 52.963z" fill="#e100ff"/>
    <path d="M10.972 111.957a132.292 132.292 0 0 1 1.035-2.32l120.285 55.071z" fill="#e600ff"/>
    <path d="M11.911 109.848a132.292 132.292 0 0 1 1.076-2.301l119.305 57.161z" fill="#ea00ff"/>
    <path d="M12.887 107.755a132.292 132.292 0 0 1 1.116-2.281l118.289 59.234z" fill="#e0f"/>
    <path d="M13.9 105.68a132.292 132.292 0 0 1 1.154-2.262l117.238 61.29z" fill="#f200ff"/>
    <path d="M14.948 103.623a132.292 132.292 0 0 1 1.194-2.242l116.15 63.327z" fill="#f700ff"/>
    <path d="M16.031 101.584a132.292 132.292 0 0 1 1.234-2.22l115.027 65.344Z" fill="#fb00ff"/>
    <path d="M17.15 99.565a132.292 132.292 0 0 1 1.273-2.199l113.869 67.342z" fill="#f0f"/>
    <path d="M18.305 97.565a132.292 132.292 0 0 1 1.31-2.176l112.677 69.32Z" fill="#ff00fb"/>
    <path d="M19.494 95.586a132.292 132.292 0 0 1 1.348-2.153l111.45 71.275Z" fill="#ff00f7"/>
    <path d="M20.718 93.628a132.292 132.292 0 0 1 1.385-2.129l110.189 73.21z" fill="#ff00f2"/>
    <path d="M21.976 91.692a132.292 132.292 0 0 1 1.422-2.105l108.894 75.121Z" fill="#f0e"/>
    <path d="M23.267 89.778a132.292 132.292 0 0 1 1.458-2.08l107.567 77.01Z" fill="#ff00ea"/>
    <path d="M24.591 87.886a132.292 132.292 0 0 1 1.495-2.053l106.206 78.875Z" fill="#ff00e6"/>
    <path d="M25.948 86.018a132.292 132.292 0 0 1 1.53-2.027l104.814 80.717z" fill="#ff00e1"/>
    <path d="M27.338 84.174a132.292 132.292 0 0 1 1.565-2l103.389 82.534Z" fill="#f0d"/>
    <path d="M28.76 82.355a132.292 132.292 0 0 1 1.6-1.973l101.932 84.326Z" fill="#ff00d9"/>
    <path d="M30.212 80.56a132.292 132.292 0 0 1 1.634-1.944l100.446 86.092Z" fill="#ff00d5"/>
    <path d="M31.696 78.792a132.292 132.292 0 0 1 1.668-1.916l98.928 87.832z" fill="#ff00d0"/>
    <path d="M33.211 77.05a132.292 132.292 0 0 1 1.701-1.887l97.38 89.545z" fill="#f0c"/>
    <path d="M34.756 75.333a132.292 132.292 0 0 1 1.734-1.856l95.802 91.231z" fill="#ff00c8"/>
    <path d="M36.33 73.645a132.292 132.292 0 0 1 1.767-1.826l94.195 92.89z" fill="#ff00c4"/>
    <path d="M37.935 71.984a132.292 132.292 0 0 1 1.797-1.794l92.56 94.518z" fill="#ff00bf"/>
    <path d="M39.567 70.351a132.292 132.292 0 0 1 1.829-1.762l90.896 96.12z" fill="#f0b"/>
    <path d="M41.228 68.747a132.292 132.292 0 0 1 1.86-1.73l89.204 97.691z" fill="#ff00b7"/>
    <path d="M42.917 67.173a132.292 132.292 0 0 1 1.889-1.698l87.486 99.233z" fill="#ff00b3"/>
    <path d="M44.633 65.628a132.292 132.292 0 0 1 1.918-1.665l85.74 100.745Z" fill="#ff00ae"/>
    <path d="M46.375 64.113a132.292 132.292 0 0 1 1.947-1.63l83.97 102.225Z" fill="#f0a"/>
    <path d="M48.144 62.629a132.292 132.292 0 0 1 1.975-1.597l82.173 103.676Z" fill="#ff00a6"/>
    <path d="M49.938 61.176a132.292 132.292 0 0 1 2.003-1.562l80.35 105.094Z" fill="#ff00a2"/>
    <path d="M51.758 59.754a132.292 132.292 0 0 1 2.03-1.526l78.504 106.48Z" fill="#ff009d"/>
    <path d="M53.602 58.365a132.292 132.292 0 0 1 2.056-1.491l76.634 107.834Z" fill="#f09"/>
    <path d="M55.47 57.008a132.292 132.292 0 0 1 2.081-1.455l74.74 109.155z" fill="#ff0095"/>
    <path d="M57.36 55.683a132.292 132.292 0 0 1 2.108-1.418l72.824 110.443Z" fill="#ff0091"/>
    <path d="M59.275 54.392a132.292 132.292 0 0 1 2.131-1.381l70.886 111.697Z" fill="#ff008c"/>
    <path d="M61.211 53.135a132.292 132.292 0 0 1 2.155-1.344l68.926 112.917Z" fill="#f08"/>
    <path d="M63.17 51.911a132.292 132.292 0 0 1 2.178-1.306l66.944 114.103Z" fill="#ff0084"/>
    <path d="M65.149 50.722a132.292 132.292 0 0 1 2.2-1.268l64.943 115.254Z" fill="#ff0080"/>
    <path d="M67.148 49.568a132.292 132.292 0 0 1 2.223-1.23l62.92 116.37Z" fill="#ff007b"/>
    <path d="M69.168 48.448a132.292 132.292 0 0 1 2.243-1.19l60.88 117.45Z" fill="#f07"/>
    <path d="M71.206 47.364a132.292 132.292 0 0 1 2.264-1.15l58.822 118.494Z" fill="#ff0073"/>
    <path d="M73.263 46.316a132.292 132.292 0 0 1 2.284-1.111l56.745 119.503Z" fill="#ff006f"/>
    <path d="M75.339 45.304a132.292 132.292 0 0 1 2.302-1.072l54.65 120.476Z" fill="#ff006a"/>
    <path d="M77.431 44.328a132.292 132.292 0 0 1 2.321-1.031l52.54 121.411Z" fill="#f06"/>
    <path d="M79.54 43.389a132.292 132.292 0 0 1 2.34-.99l50.412 122.31Z" fill="#ff0062"/>
    <path d="M81.666 42.487a132.292 132.292 0 0 1 2.356-.95l48.27 123.171Z" fill="#ff005e"/>
    <path d="M83.807 41.622a132.292 132.292 0 0 1 2.371-.908l46.114 123.994Z" fill="#ff0059"/>
    <path d="M85.962 40.794a132.292 132.292 0 0 1 2.388-.866l43.942 124.78Z" fill="#f05"/>
    <path d="M88.132 40.005a132.292 132.292 0 0 1 2.402-.825l41.758 125.528Z" fill="#ff0051"/>
    <path d="M90.315 39.253a132.292 132.292 0 0 1 2.416-.783l39.56 126.238Z" fill="#ff004d"/>
    <path d="M92.51 38.54a132.292 132.292 0 0 1 2.43-.74l37.352 126.908Z" fill="#ff0048"/>
    <path d="M94.719 37.864a132.292 132.292 0 0 1 2.442-.697l35.13 127.541Z" fill="#f04"/>
    <path d="M96.938 37.228a132.292 132.292 0 0 1 2.454-.655l32.9 128.135Z" fill="#ff0040"/>
    <path d="M99.168 36.63a132.292 132.292 0 0 1 2.465-.612l30.659 128.69z" fill="#ff003c"/>
    <path d="M101.409 36.072a132.292 132.292 0 0 1 2.475-.57l28.408 129.206z" fill="#ff0037"/>
    <path d="M103.659 35.552a132.292 132.292 0 0 1 2.484-.525l26.149 129.681z" fill="#f03"/>
    <path d="M105.917 35.072a132.292 132.292 0 0 1 2.493-.482l23.882 130.118z" fill="#ff002f"/>
    <path d="M108.183 34.632a132.292 132.292 0 0 1 2.502-.439l21.607 130.515Z" fill="#ff002b"/>
    <path d="M110.457 34.231a132.292 132.292 0 0 1 2.51-.395l19.325 130.872z" fill="#ff0026"/>
    <path d="M112.738 33.87a132.292 132.292 0 0 1 2.515-.352l17.039 131.19z" fill="#f02"/>
    <path d="M115.024 33.548a132.292 132.292 0 0 1 2.521-.307l14.747 131.467z" fill="#ff001e"/>
    <path d="M117.316 33.267a132.292 132.292 0 0 1 2.526-.263l12.45 131.704z" fill="#ff001a"/>
    <path d="M119.612 33.026a132.292 132.292 0 0 1 2.53-.22l10.15 131.902z" fill="#ff0015"/>
    <path d="M121.912 32.824a132.292 132.292 0 0 1 2.534-.174l7.846 132.058z" fill="#f01"/>
    <path d="M124.215 32.663a132.292 132.292 0 0 1 2.537-.13l5.54 132.175z" fill="#ff000d"/>
    <path d="M126.521 32.543a132.292 132.292 0 0 1 2.539-.087l3.232 132.252z" fill="#ff0009"/>
    <path d="M128.829 32.462a132.292 132.292 0 0 1 2.54-.042l.923 132.288z" fill="#ff0004"/>
    <circle cx="132.292" cy="164.708" r="132.292" fill="url(#b)"/>
  </g>
</svg>
